G04 #@! TF.GenerationSoftware,KiCad,Pcbnew,(5.0.0)*
G04 #@! TF.CreationDate,2018-08-02T21:10:44+08:00*
G04 #@! TF.ProjectId,VitaMemBreakout,566974614D656D427265616B6F75742E,rev?*
G04 #@! TF.SameCoordinates,Original*
G04 #@! TF.FileFunction,Copper,L1,Top,Signal*
G04 #@! TF.FilePolarity,Positive*
%FSLAX46Y46*%
G04 Gerber Fmt 4.6, Leading zero omitted, Abs format (unit mm)*
G04 Created by KiCad (PCBNEW (5.0.0)) date 08/02/18 21:10:44*
%MOMM*%
%LPD*%
G01*
G04 APERTURE LIST*
G04 #@! TA.AperFunction,SMDPad,CuDef*
%ADD10R,1.000000X4.200000*%
G04 #@! TD*
G04 #@! TA.AperFunction,SMDPad,CuDef*
%ADD11R,0.800000X2.400000*%
G04 #@! TD*
G04 #@! TA.AperFunction,ComponentPad*
%ADD12R,1.700000X1.700000*%
G04 #@! TD*
G04 #@! TA.AperFunction,ComponentPad*
%ADD13O,1.700000X1.700000*%
G04 #@! TD*
G04 #@! TA.AperFunction,Conductor*
%ADD14C,0.250000*%
G04 #@! TD*
G04 APERTURE END LIST*
D10*
G04 #@! TO.P,,9*
G04 #@! TO.N,N/C*
X25250140Y-17774920D03*
D11*
G04 #@! TO.P,,8*
X26393140Y-17266920D03*
D10*
G04 #@! TO.P,,3*
X31600140Y-17774920D03*
D11*
G04 #@! TO.P,,7*
X27409140Y-17266920D03*
G04 #@! TO.P,,6*
X28425140Y-17266920D03*
G04 #@! TO.P,,5*
X29441140Y-17266920D03*
G04 #@! TO.P,,4*
X30457140Y-17266920D03*
G04 #@! TO.P,,2*
X32743140Y-17266920D03*
G04 #@! TO.P,,1*
X33759140Y-17266920D03*
G04 #@! TD*
D12*
G04 #@! TO.P,,1*
G04 #@! TO.N,N/C*
X38895020Y-55118000D03*
D13*
G04 #@! TO.P,,2*
X36355020Y-55118000D03*
G04 #@! TO.P,,3*
X33815020Y-55118000D03*
G04 #@! TO.P,,4*
X31275020Y-55118000D03*
G04 #@! TO.P,,5*
X28735020Y-55118000D03*
G04 #@! TO.P,,6*
X26195020Y-55118000D03*
G04 #@! TO.P,,7*
X23655020Y-55118000D03*
G04 #@! TO.P,,8*
X21115020Y-55118000D03*
G04 #@! TO.P,,9*
X18575020Y-55118000D03*
G04 #@! TD*
D14*
G04 #@! TO.N,*
X38895020Y-51112420D02*
X38895020Y-55118000D01*
X38811200Y-51028600D02*
X38895020Y-51112420D01*
X34645600Y-51028600D02*
X38811200Y-51028600D01*
X33759140Y-17266920D02*
X33759140Y-50142140D01*
X33759140Y-50142140D02*
X34645600Y-51028600D01*
X32743140Y-18716920D02*
X32740600Y-18719460D01*
X32743140Y-17266920D02*
X32743140Y-18716920D01*
X32740600Y-18719460D02*
X32740600Y-50063400D01*
X32740600Y-50063400D02*
X34696400Y-52019200D01*
X34696400Y-52019200D02*
X36322000Y-52019200D01*
X36355020Y-52052220D02*
X36355020Y-55118000D01*
X36322000Y-52019200D02*
X36355020Y-52052220D01*
X25250140Y-48442880D02*
X22689820Y-51003200D01*
X25250140Y-17774920D02*
X25250140Y-48442880D01*
X22689820Y-51003200D02*
X18567400Y-51003200D01*
X18575020Y-51010820D02*
X18575020Y-55118000D01*
X18567400Y-51003200D02*
X18575020Y-51010820D01*
X26393140Y-17266920D02*
X26393140Y-48409860D01*
X26393140Y-48409860D02*
X22987000Y-51816000D01*
X22987000Y-51816000D02*
X21107400Y-51816000D01*
X21115020Y-51823620D02*
X21115020Y-55118000D01*
X21107400Y-51816000D02*
X21115020Y-51823620D01*
X27409140Y-17266920D02*
X27409140Y-48841660D01*
X27409140Y-48841660D02*
X23647400Y-52603400D01*
X23655020Y-52611020D02*
X23655020Y-55118000D01*
X23647400Y-52603400D02*
X23655020Y-52611020D01*
X28425140Y-17266920D02*
X28425140Y-49781460D01*
X28425140Y-49781460D02*
X26187400Y-52019200D01*
X26195020Y-52026820D02*
X26195020Y-55118000D01*
X26187400Y-52019200D02*
X26195020Y-52026820D01*
X29441140Y-17266920D02*
X29441140Y-52067460D01*
X29441140Y-52067460D02*
X28727400Y-52781200D01*
X28735020Y-52788820D02*
X28735020Y-55118000D01*
X28727400Y-52781200D02*
X28735020Y-52788820D01*
X33815020Y-52280820D02*
X33815020Y-55118000D01*
X31600140Y-17774920D02*
X31600140Y-50065940D01*
X31600140Y-50065940D02*
X33815020Y-52280820D01*
X31275020Y-53068220D02*
X31275020Y-55118000D01*
X30457140Y-17266920D02*
X30457140Y-52250340D01*
X30457140Y-52250340D02*
X31275020Y-53068220D01*
G04 #@! TD*
M02*
