G04 #@! TF.GenerationSoftware,KiCad,Pcbnew,(5.0.0)*
G04 #@! TF.CreationDate,2018-08-02T21:10:44+08:00*
G04 #@! TF.ProjectId,VitaMemBreakout,566974614D656D427265616B6F75742E,rev?*
G04 #@! TF.SameCoordinates,Original*
G04 #@! TF.FileFunction,Legend,Top*
G04 #@! TF.FilePolarity,Positive*
%FSLAX46Y46*%
G04 Gerber Fmt 4.6, Leading zero omitted, Abs format (unit mm)*
G04 Created by KiCad (PCBNEW (5.0.0)) date 08/02/18 21:10:44*
%MOMM*%
%LPD*%
G01*
G04 APERTURE LIST*
%ADD10C,0.200000*%
%ADD11C,0.120000*%
%ADD12C,0.150000*%
G04 APERTURE END LIST*
D10*
X24741809Y-21827380D02*
X24741809Y-20827380D01*
X25075142Y-21541666D01*
X25408476Y-20827380D01*
X25408476Y-21827380D01*
X26265619Y-21779761D02*
X26170380Y-21827380D01*
X25979904Y-21827380D01*
X25884666Y-21779761D01*
X25837047Y-21684523D01*
X25837047Y-21303571D01*
X25884666Y-21208333D01*
X25979904Y-21160714D01*
X26170380Y-21160714D01*
X26265619Y-21208333D01*
X26313238Y-21303571D01*
X26313238Y-21398809D01*
X25837047Y-21494047D01*
X26741809Y-21827380D02*
X26741809Y-21160714D01*
X26741809Y-21255952D02*
X26789428Y-21208333D01*
X26884666Y-21160714D01*
X27027523Y-21160714D01*
X27122761Y-21208333D01*
X27170380Y-21303571D01*
X27170380Y-21827380D01*
X27170380Y-21303571D02*
X27218000Y-21208333D01*
X27313238Y-21160714D01*
X27456095Y-21160714D01*
X27551333Y-21208333D01*
X27598952Y-21303571D01*
X27598952Y-21827380D01*
X28218000Y-21827380D02*
X28122761Y-21779761D01*
X28075142Y-21732142D01*
X28027523Y-21636904D01*
X28027523Y-21351190D01*
X28075142Y-21255952D01*
X28122761Y-21208333D01*
X28218000Y-21160714D01*
X28360857Y-21160714D01*
X28456095Y-21208333D01*
X28503714Y-21255952D01*
X28551333Y-21351190D01*
X28551333Y-21636904D01*
X28503714Y-21732142D01*
X28456095Y-21779761D01*
X28360857Y-21827380D01*
X28218000Y-21827380D01*
X28979904Y-21827380D02*
X28979904Y-21160714D01*
X28979904Y-21351190D02*
X29027523Y-21255952D01*
X29075142Y-21208333D01*
X29170380Y-21160714D01*
X29265619Y-21160714D01*
X29503714Y-21160714D02*
X29741809Y-21827380D01*
X29979904Y-21160714D02*
X29741809Y-21827380D01*
X29646571Y-22065476D01*
X29598952Y-22113095D01*
X29503714Y-22160714D01*
X31551333Y-21779761D02*
X31456095Y-21827380D01*
X31265619Y-21827380D01*
X31170380Y-21779761D01*
X31122761Y-21732142D01*
X31075142Y-21636904D01*
X31075142Y-21351190D01*
X31122761Y-21255952D01*
X31170380Y-21208333D01*
X31265619Y-21160714D01*
X31456095Y-21160714D01*
X31551333Y-21208333D01*
X32408476Y-21827380D02*
X32408476Y-21303571D01*
X32360857Y-21208333D01*
X32265619Y-21160714D01*
X32075142Y-21160714D01*
X31979904Y-21208333D01*
X32408476Y-21779761D02*
X32313238Y-21827380D01*
X32075142Y-21827380D01*
X31979904Y-21779761D01*
X31932285Y-21684523D01*
X31932285Y-21589285D01*
X31979904Y-21494047D01*
X32075142Y-21446428D01*
X32313238Y-21446428D01*
X32408476Y-21398809D01*
X32884666Y-21827380D02*
X32884666Y-21160714D01*
X32884666Y-21351190D02*
X32932285Y-21255952D01*
X32979904Y-21208333D01*
X33075142Y-21160714D01*
X33170380Y-21160714D01*
X33932285Y-21827380D02*
X33932285Y-20827380D01*
X33932285Y-21779761D02*
X33837047Y-21827380D01*
X33646571Y-21827380D01*
X33551333Y-21779761D01*
X33503714Y-21732142D01*
X33456095Y-21636904D01*
X33456095Y-21351190D01*
X33503714Y-21255952D01*
X33551333Y-21208333D01*
X33646571Y-21160714D01*
X33837047Y-21160714D01*
X33932285Y-21208333D01*
X28194190Y-22860714D02*
X28194190Y-23860714D01*
X28194190Y-22908333D02*
X28289428Y-22860714D01*
X28479904Y-22860714D01*
X28575142Y-22908333D01*
X28622761Y-22955952D01*
X28670380Y-23051190D01*
X28670380Y-23336904D01*
X28622761Y-23432142D01*
X28575142Y-23479761D01*
X28479904Y-23527380D01*
X28289428Y-23527380D01*
X28194190Y-23479761D01*
X29527523Y-23527380D02*
X29527523Y-23003571D01*
X29479904Y-22908333D01*
X29384666Y-22860714D01*
X29194190Y-22860714D01*
X29098952Y-22908333D01*
X29527523Y-23479761D02*
X29432285Y-23527380D01*
X29194190Y-23527380D01*
X29098952Y-23479761D01*
X29051333Y-23384523D01*
X29051333Y-23289285D01*
X29098952Y-23194047D01*
X29194190Y-23146428D01*
X29432285Y-23146428D01*
X29527523Y-23098809D01*
X30432285Y-23527380D02*
X30432285Y-22527380D01*
X30432285Y-23479761D02*
X30337047Y-23527380D01*
X30146571Y-23527380D01*
X30051333Y-23479761D01*
X30003714Y-23432142D01*
X29956095Y-23336904D01*
X29956095Y-23051190D01*
X30003714Y-22955952D01*
X30051333Y-22908333D01*
X30146571Y-22860714D01*
X30337047Y-22860714D01*
X30432285Y-22908333D01*
X30860857Y-23479761D02*
X30956095Y-23527380D01*
X31146571Y-23527380D01*
X31241809Y-23479761D01*
X31289428Y-23384523D01*
X31289428Y-23336904D01*
X31241809Y-23241666D01*
X31146571Y-23194047D01*
X31003714Y-23194047D01*
X30908476Y-23146428D01*
X30860857Y-23051190D01*
X30860857Y-23003571D01*
X30908476Y-22908333D01*
X31003714Y-22860714D01*
X31146571Y-22860714D01*
X31241809Y-22908333D01*
D11*
G04 #@! TO.C,*
X17245020Y-53788000D02*
X17245020Y-56448000D01*
X37625020Y-53788000D02*
X17245020Y-53788000D01*
X37625020Y-56448000D02*
X17245020Y-56448000D01*
X37625020Y-53788000D02*
X37625020Y-56448000D01*
X38895020Y-53788000D02*
X40225020Y-53788000D01*
X40225020Y-53788000D02*
X40225020Y-55118000D01*
D12*
G04 #@! TD*
M02*
