G04 #@! TF.GenerationSoftware,KiCad,Pcbnew,(5.0.0)*
G04 #@! TF.CreationDate,2018-08-02T21:10:44+08:00*
G04 #@! TF.ProjectId,VitaMemBreakout,566974614D656D427265616B6F75742E,rev?*
G04 #@! TF.SameCoordinates,Original*
G04 #@! TF.FileFunction,Legend,Bot*
G04 #@! TF.FilePolarity,Positive*
%FSLAX46Y46*%
G04 Gerber Fmt 4.6, Leading zero omitted, Abs format (unit mm)*
G04 Created by KiCad (PCBNEW (5.0.0)) date 08/02/18 21:10:44*
%MOMM*%
%LPD*%
G01*
G04 APERTURE LIST*
%ADD10C,0.300000*%
G04 APERTURE END LIST*
D10*
X31750857Y-29779428D02*
X30550857Y-29779428D01*
X30550857Y-30236571D01*
X30608000Y-30350857D01*
X30665142Y-30408000D01*
X30779428Y-30465142D01*
X30950857Y-30465142D01*
X31065142Y-30408000D01*
X31122285Y-30350857D01*
X31179428Y-30236571D01*
X31179428Y-29779428D01*
X31693714Y-30922285D02*
X31750857Y-31093714D01*
X31750857Y-31379428D01*
X31693714Y-31493714D01*
X31636571Y-31550857D01*
X31522285Y-31608000D01*
X31408000Y-31608000D01*
X31293714Y-31550857D01*
X31236571Y-31493714D01*
X31179428Y-31379428D01*
X31122285Y-31150857D01*
X31065142Y-31036571D01*
X31008000Y-30979428D01*
X30893714Y-30922285D01*
X30779428Y-30922285D01*
X30665142Y-30979428D01*
X30608000Y-31036571D01*
X30550857Y-31150857D01*
X30550857Y-31436571D01*
X30608000Y-31608000D01*
X30550857Y-31950857D02*
X31750857Y-32350857D01*
X30550857Y-32750857D01*
X31750857Y-33150857D02*
X30950857Y-33150857D01*
X30550857Y-33150857D02*
X30608000Y-33093714D01*
X30665142Y-33150857D01*
X30608000Y-33208000D01*
X30550857Y-33150857D01*
X30665142Y-33150857D01*
X30950857Y-33550857D02*
X30950857Y-34008000D01*
X30550857Y-33722285D02*
X31579428Y-33722285D01*
X31693714Y-33779428D01*
X31750857Y-33893714D01*
X31750857Y-34008000D01*
X31750857Y-34922285D02*
X31122285Y-34922285D01*
X31008000Y-34865142D01*
X30950857Y-34750857D01*
X30950857Y-34522285D01*
X31008000Y-34408000D01*
X31693714Y-34922285D02*
X31750857Y-34808000D01*
X31750857Y-34522285D01*
X31693714Y-34408000D01*
X31579428Y-34350857D01*
X31465142Y-34350857D01*
X31350857Y-34408000D01*
X31293714Y-34522285D01*
X31293714Y-34808000D01*
X31236571Y-34922285D01*
X31750857Y-36408000D02*
X30550857Y-36408000D01*
X31408000Y-36808000D01*
X30550857Y-37208000D01*
X31750857Y-37208000D01*
X31693714Y-38236571D02*
X31750857Y-38122285D01*
X31750857Y-37893714D01*
X31693714Y-37779428D01*
X31579428Y-37722285D01*
X31122285Y-37722285D01*
X31008000Y-37779428D01*
X30950857Y-37893714D01*
X30950857Y-38122285D01*
X31008000Y-38236571D01*
X31122285Y-38293714D01*
X31236571Y-38293714D01*
X31350857Y-37722285D01*
X31750857Y-38808000D02*
X30950857Y-38808000D01*
X31065142Y-38808000D02*
X31008000Y-38865142D01*
X30950857Y-38979428D01*
X30950857Y-39150857D01*
X31008000Y-39265142D01*
X31122285Y-39322285D01*
X31750857Y-39322285D01*
X31122285Y-39322285D02*
X31008000Y-39379428D01*
X30950857Y-39493714D01*
X30950857Y-39665142D01*
X31008000Y-39779428D01*
X31122285Y-39836571D01*
X31750857Y-39836571D01*
X31750857Y-40579428D02*
X31693714Y-40465142D01*
X31636571Y-40408000D01*
X31522285Y-40350857D01*
X31179428Y-40350857D01*
X31065142Y-40408000D01*
X31008000Y-40465142D01*
X30950857Y-40579428D01*
X30950857Y-40750857D01*
X31008000Y-40865142D01*
X31065142Y-40922285D01*
X31179428Y-40979428D01*
X31522285Y-40979428D01*
X31636571Y-40922285D01*
X31693714Y-40865142D01*
X31750857Y-40750857D01*
X31750857Y-40579428D01*
X31750857Y-41493714D02*
X30950857Y-41493714D01*
X31179428Y-41493714D02*
X31065142Y-41550857D01*
X31008000Y-41608000D01*
X30950857Y-41722285D01*
X30950857Y-41836571D01*
X30950857Y-42122285D02*
X31750857Y-42408000D01*
X30950857Y-42693714D02*
X31750857Y-42408000D01*
X32036571Y-42293714D01*
X32093714Y-42236571D01*
X32150857Y-42122285D01*
X31693714Y-44579428D02*
X31750857Y-44465142D01*
X31750857Y-44236571D01*
X31693714Y-44122285D01*
X31636571Y-44065142D01*
X31522285Y-44008000D01*
X31179428Y-44008000D01*
X31065142Y-44065142D01*
X31008000Y-44122285D01*
X30950857Y-44236571D01*
X30950857Y-44465142D01*
X31008000Y-44579428D01*
X31750857Y-45608000D02*
X31122285Y-45608000D01*
X31008000Y-45550857D01*
X30950857Y-45436571D01*
X30950857Y-45208000D01*
X31008000Y-45093714D01*
X31693714Y-45608000D02*
X31750857Y-45493714D01*
X31750857Y-45208000D01*
X31693714Y-45093714D01*
X31579428Y-45036571D01*
X31465142Y-45036571D01*
X31350857Y-45093714D01*
X31293714Y-45208000D01*
X31293714Y-45493714D01*
X31236571Y-45608000D01*
X31750857Y-46179428D02*
X30950857Y-46179428D01*
X31179428Y-46179428D02*
X31065142Y-46236571D01*
X31008000Y-46293714D01*
X30950857Y-46408000D01*
X30950857Y-46522285D01*
X31750857Y-47436571D02*
X30550857Y-47436571D01*
X31693714Y-47436571D02*
X31750857Y-47322285D01*
X31750857Y-47093714D01*
X31693714Y-46979428D01*
X31636571Y-46922285D01*
X31522285Y-46865142D01*
X31179428Y-46865142D01*
X31065142Y-46922285D01*
X31008000Y-46979428D01*
X30950857Y-47093714D01*
X30950857Y-47322285D01*
X31008000Y-47436571D01*
X33850857Y-31150857D02*
X32650857Y-31150857D01*
X33108000Y-31150857D02*
X33050857Y-31265142D01*
X33050857Y-31493714D01*
X33108000Y-31608000D01*
X33165142Y-31665142D01*
X33279428Y-31722285D01*
X33622285Y-31722285D01*
X33736571Y-31665142D01*
X33793714Y-31608000D01*
X33850857Y-31493714D01*
X33850857Y-31265142D01*
X33793714Y-31150857D01*
X33850857Y-32236571D02*
X33050857Y-32236571D01*
X33279428Y-32236571D02*
X33165142Y-32293714D01*
X33108000Y-32350857D01*
X33050857Y-32465142D01*
X33050857Y-32579428D01*
X33793714Y-33436571D02*
X33850857Y-33322285D01*
X33850857Y-33093714D01*
X33793714Y-32979428D01*
X33679428Y-32922285D01*
X33222285Y-32922285D01*
X33108000Y-32979428D01*
X33050857Y-33093714D01*
X33050857Y-33322285D01*
X33108000Y-33436571D01*
X33222285Y-33493714D01*
X33336571Y-33493714D01*
X33450857Y-32922285D01*
X33850857Y-34522285D02*
X33222285Y-34522285D01*
X33108000Y-34465142D01*
X33050857Y-34350857D01*
X33050857Y-34122285D01*
X33108000Y-34008000D01*
X33793714Y-34522285D02*
X33850857Y-34408000D01*
X33850857Y-34122285D01*
X33793714Y-34008000D01*
X33679428Y-33950857D01*
X33565142Y-33950857D01*
X33450857Y-34008000D01*
X33393714Y-34122285D01*
X33393714Y-34408000D01*
X33336571Y-34522285D01*
X33850857Y-35093714D02*
X32650857Y-35093714D01*
X33393714Y-35208000D02*
X33850857Y-35550857D01*
X33050857Y-35550857D02*
X33508000Y-35093714D01*
X33850857Y-36236571D02*
X33793714Y-36122285D01*
X33736571Y-36065142D01*
X33622285Y-36008000D01*
X33279428Y-36008000D01*
X33165142Y-36065142D01*
X33108000Y-36122285D01*
X33050857Y-36236571D01*
X33050857Y-36408000D01*
X33108000Y-36522285D01*
X33165142Y-36579428D01*
X33279428Y-36636571D01*
X33622285Y-36636571D01*
X33736571Y-36579428D01*
X33793714Y-36522285D01*
X33850857Y-36408000D01*
X33850857Y-36236571D01*
X33050857Y-37665142D02*
X33850857Y-37665142D01*
X33050857Y-37150857D02*
X33679428Y-37150857D01*
X33793714Y-37208000D01*
X33850857Y-37322285D01*
X33850857Y-37493714D01*
X33793714Y-37608000D01*
X33736571Y-37665142D01*
X33050857Y-38065142D02*
X33050857Y-38522285D01*
X32650857Y-38236571D02*
X33679428Y-38236571D01*
X33793714Y-38293714D01*
X33850857Y-38408000D01*
X33850857Y-38522285D01*
X33850857Y-40350857D02*
X33222285Y-40350857D01*
X33108000Y-40293714D01*
X33050857Y-40179428D01*
X33050857Y-39950857D01*
X33108000Y-39836571D01*
X33793714Y-40350857D02*
X33850857Y-40236571D01*
X33850857Y-39950857D01*
X33793714Y-39836571D01*
X33679428Y-39779428D01*
X33565142Y-39779428D01*
X33450857Y-39836571D01*
X33393714Y-39950857D01*
X33393714Y-40236571D01*
X33336571Y-40350857D01*
X33850857Y-41436571D02*
X32650857Y-41436571D01*
X33793714Y-41436571D02*
X33850857Y-41322285D01*
X33850857Y-41093714D01*
X33793714Y-40979428D01*
X33736571Y-40922285D01*
X33622285Y-40865142D01*
X33279428Y-40865142D01*
X33165142Y-40922285D01*
X33108000Y-40979428D01*
X33050857Y-41093714D01*
X33050857Y-41322285D01*
X33108000Y-41436571D01*
X33850857Y-42522285D02*
X33222285Y-42522285D01*
X33108000Y-42465142D01*
X33050857Y-42350857D01*
X33050857Y-42122285D01*
X33108000Y-42008000D01*
X33793714Y-42522285D02*
X33850857Y-42408000D01*
X33850857Y-42122285D01*
X33793714Y-42008000D01*
X33679428Y-41950857D01*
X33565142Y-41950857D01*
X33450857Y-42008000D01*
X33393714Y-42122285D01*
X33393714Y-42408000D01*
X33336571Y-42522285D01*
X33050857Y-43093714D02*
X34250857Y-43093714D01*
X33108000Y-43093714D02*
X33050857Y-43208000D01*
X33050857Y-43436571D01*
X33108000Y-43550857D01*
X33165142Y-43608000D01*
X33279428Y-43665142D01*
X33622285Y-43665142D01*
X33736571Y-43608000D01*
X33793714Y-43550857D01*
X33850857Y-43436571D01*
X33850857Y-43208000D01*
X33793714Y-43093714D01*
X33050857Y-44008000D02*
X33050857Y-44465142D01*
X32650857Y-44179428D02*
X33679428Y-44179428D01*
X33793714Y-44236571D01*
X33850857Y-44350857D01*
X33850857Y-44465142D01*
X33793714Y-45322285D02*
X33850857Y-45208000D01*
X33850857Y-44979428D01*
X33793714Y-44865142D01*
X33679428Y-44808000D01*
X33222285Y-44808000D01*
X33108000Y-44865142D01*
X33050857Y-44979428D01*
X33050857Y-45208000D01*
X33108000Y-45322285D01*
X33222285Y-45379428D01*
X33336571Y-45379428D01*
X33450857Y-44808000D01*
X33850857Y-45893714D02*
X33050857Y-45893714D01*
X33279428Y-45893714D02*
X33165142Y-45950857D01*
X33108000Y-46008000D01*
X33050857Y-46122285D01*
X33050857Y-46236571D01*
M02*
