G04 #@! TF.GenerationSoftware,KiCad,Pcbnew,(5.0.0)*
G04 #@! TF.CreationDate,2018-08-10T13:09:27+08:00*
G04 #@! TF.ProjectId,VitaMemBreakout,566974614D656D427265616B6F75742E,rev?*
G04 #@! TF.SameCoordinates,Original*
G04 #@! TF.FileFunction,Copper,L1,Top,Signal*
G04 #@! TF.FilePolarity,Positive*
%FSLAX46Y46*%
G04 Gerber Fmt 4.6, Leading zero omitted, Abs format (unit mm)*
G04 Created by KiCad (PCBNEW (5.0.0)) date 08/10/18 13:09:27*
%MOMM*%
%LPD*%
G01*
G04 APERTURE LIST*
G04 #@! TA.AperFunction,SMDPad,CuDef*
%ADD10R,0.600000X2.400000*%
G04 #@! TD*
G04 #@! TA.AperFunction,SMDPad,CuDef*
%ADD11R,0.800000X4.200000*%
G04 #@! TD*
G04 #@! TA.AperFunction,ComponentPad*
%ADD12R,1.700000X1.700000*%
G04 #@! TD*
G04 #@! TA.AperFunction,ComponentPad*
%ADD13O,1.700000X1.700000*%
G04 #@! TD*
G04 #@! TA.AperFunction,Conductor*
%ADD14C,0.250000*%
G04 #@! TD*
G04 APERTURE END LIST*
D10*
G04 #@! TO.P,PSVPins,9*
G04 #@! TO.N,N/C*
X33426400Y-17399000D03*
G04 #@! TO.P,PSVPins,8*
X32461200Y-17399000D03*
D11*
G04 #@! TO.P,PSVPins,7*
X31394400Y-17856200D03*
D10*
G04 #@! TO.P,PSVPins,6*
X30327600Y-17399000D03*
G04 #@! TO.P,PSVPins,5*
X29362400Y-17399000D03*
G04 #@! TO.P,PSVPins,4*
X28397200Y-17399000D03*
G04 #@! TO.P,PSVPins,3*
X27432000Y-17399000D03*
G04 #@! TO.P,PSVPins,2*
X26466800Y-17399000D03*
D11*
G04 #@! TO.P,PSVPins,1*
X25400000Y-17856200D03*
G04 #@! TD*
D12*
G04 #@! TO.P,,1*
G04 #@! TO.N,N/C*
X38895020Y-55118000D03*
D13*
G04 #@! TO.P,,2*
X36355020Y-55118000D03*
G04 #@! TO.P,,3*
X33815020Y-55118000D03*
G04 #@! TO.P,,4*
X31275020Y-55118000D03*
G04 #@! TO.P,,5*
X28735020Y-55118000D03*
G04 #@! TO.P,,6*
X26195020Y-55118000D03*
G04 #@! TO.P,,7*
X23655020Y-55118000D03*
G04 #@! TO.P,,8*
X21115020Y-55118000D03*
G04 #@! TO.P,,9*
X18575020Y-55118000D03*
G04 #@! TD*
D14*
G04 #@! TO.N,*
X25400000Y-17856200D02*
X25400000Y-48895000D01*
X25400000Y-48895000D02*
X23418800Y-50876200D01*
X23418800Y-50876200D02*
X20269200Y-50876200D01*
X18575020Y-52570380D02*
X18575020Y-55118000D01*
X20269200Y-50876200D02*
X18575020Y-52570380D01*
X26466800Y-49766220D02*
X21115020Y-55118000D01*
X26466800Y-17399000D02*
X26466800Y-49766220D01*
X27432000Y-51341020D02*
X23655020Y-55118000D01*
X27432000Y-17399000D02*
X27432000Y-51341020D01*
X28397200Y-52915820D02*
X26195020Y-55118000D01*
X28397200Y-17399000D02*
X28397200Y-52915820D01*
X29362400Y-17399000D02*
X29362400Y-52832000D01*
X28735020Y-53459380D02*
X28735020Y-55118000D01*
X29362400Y-52832000D02*
X28735020Y-53459380D01*
X30327600Y-17399000D02*
X30327600Y-51943000D01*
X31275020Y-52890420D02*
X31275020Y-55118000D01*
X30327600Y-51943000D02*
X31275020Y-52890420D01*
X31394400Y-17856200D02*
X31394400Y-50114200D01*
X33815020Y-52534820D02*
X33815020Y-55118000D01*
X31394400Y-50114200D02*
X33815020Y-52534820D01*
X36355020Y-53677820D02*
X36355020Y-55118000D01*
X32461200Y-17399000D02*
X32461200Y-49784000D01*
X32461200Y-49784000D02*
X36355020Y-53677820D01*
X33426400Y-17399000D02*
X33426400Y-49530000D01*
X33426400Y-49530000D02*
X36449000Y-52552600D01*
X38895020Y-54018000D02*
X38895020Y-55118000D01*
X37429620Y-52552600D02*
X38895020Y-54018000D01*
X36449000Y-52552600D02*
X37429620Y-52552600D01*
G04 #@! TD*
M02*
